<?xml version="1.0" encoding="UTF-8"?>
<svg width="32px" height="32px" viewBox="0 0 32 32" version="1.1" xmlns="http://www.w3.org/2000/svg" xmlns:xlink="http://www.w3.org/1999/xlink">
    <title>rocket</title>
    <g stroke="none" stroke-width="1" fill="none" fill-rule="evenodd">
        <g fill="#4a8cff" transform="translate(-2.000000, -2.000000)" fill-rule="nonzero">
            <path d="M18,2.5 C18,1.67157288 18.6715729,1 19.5,1 C20.3284271,1 21,1.67157288 21,2.5 C21,3.32842712 20.3284271,4 19.5,4 C18.6715729,4 18,3.32842712 18,2.5 Z M16.5,4.5 C16.5,3.67157288 17.1715729,3 18,3 C18.8284271,3 19.5,3.67157288 19.5,4.5 C19.5,5.32842712 18.8284271,6 18,6 C17.1715729,6 16.5,5.32842712 16.5,4.5 Z M12.5,8.5 C12.5,7.67157288 13.1715729,7 14,7 C14.8284271,7 15.5,7.67157288 15.5,8.5 C15.5,9.32842712 14.8284271,10 14,10 C13.1715729,10 12.5,9.32842712 12.5,8.5 Z M11,12 C11,11.1715729 11.6715729,10.5 12.5,10.5 C13.3284271,10.5 14,11.1715729 14,12 C14,12.8284271 13.3284271,13.5 12.5,13.5 C11.6715729,13.5 11,12.8284271 11,12 Z M10.5,16 C10.5,15.1715729 11.1715729,14.5 12,14.5 C12.8284271,14.5 13.5,15.1715729 13.5,16 C13.5,16.8284271 12.8284271,17.5 12,17.5 C11.1715729,17.5 10.5,16.8284271 10.5,16 Z M12.5,20 C11.6715729,20 11,19.3284271 11,18.5 C11,17.6715729 11.6715729,17 12.5,17 C13.3284271,17 14,17.6715729 14,18.5 C14,19.3284271 13.3284271,20 12.5,20 Z M16.5,22 C15.6715729,22 15,21.3284271 15,20.5 C15,19.6715729 15.6715729,19 16.5,19 C17.3284271,19 18,19.6715729 18,20.5 C18,21.3284271 17.3284271,22 16.5,22 Z M21,22.5 C20.1715729,22.5 19.5,21.8284271 19.5,21 C19.5,20.1715729 20.1715729,19.5 21,19.5 C21.8284271,19.5 22.5,20.1715729 22.5,21 C22.5,21.8284271 21.8284271,22.5 21,22.5 Z" opacity="0.2"></path>
            <path d="M13,13 L13,16 L16,16 L16,13 L13,13 Z M11,11 L11,18 L18,18 L18,11 L11,11 Z M9,9 L9,20 L20,20 L20,9 L9,9 Z M7,7 L22,7 L22,22 L7,22 L7,7 Z M24,5 L24,24 L5,24 L5,5 L24,5 Z"></path>
            <path d="M16,2 C16.5522847,2 17,2.44771525 17,3 L17,5 C17,5.55228475 16.5522847,6 16,6 C15.4477153,6 15,5.55228475 15,5 L15,3 C15,2.44771525 15.4477153,2 16,2 Z" transform="translate(16.000000, 4.000000) rotate(45.000000) translate(-16.000000, -4.000000) "></path>
        </g>
    </g>
</svg>
